<svg width="151" height="40" viewBox="0 0 151 40" fill="none" xmlns="http://www.w3.org/2000/svg">
<path d="M4.536 19C3.928 19 3.368 18.848 2.856 18.544C2.344 18.224 1.928 17.808 1.608 17.296C1.304 16.784 1.152 16.224 1.152 15.616V14.992H4.56V15.448C4.56 15.48 4.576 15.512 4.608 15.544C4.64 15.576 4.672 15.592 4.704 15.592H11.712C11.744 15.592 11.776 15.576 11.808 15.544C11.84 15.512 11.856 15.48 11.856 15.448V13.888C11.856 13.856 11.84 13.832 11.808 13.816C11.776 13.784 11.744 13.768 11.712 13.768H4.536C3.928 13.768 3.368 13.616 2.856 13.312C2.344 12.992 1.928 12.576 1.608 12.064C1.304 11.552 1.152 10.984 1.152 10.36V8.464C1.152 7.856 1.304 7.296 1.608 6.784C1.928 6.272 2.344 5.864 2.856 5.56C3.368 5.24 3.928 5.08 4.536 5.08H11.88C12.504 5.08 13.072 5.24 13.584 5.56C14.096 5.864 14.504 6.272 14.808 6.784C15.128 7.296 15.288 7.856 15.288 8.464V9.088H11.856V8.632C11.856 8.6 11.84 8.568 11.808 8.536C11.776 8.504 11.744 8.488 11.712 8.488H4.704C4.672 8.488 4.64 8.504 4.608 8.536C4.576 8.568 4.56 8.6 4.56 8.632V10.192C4.56 10.224 4.576 10.256 4.608 10.288C4.64 10.304 4.672 10.312 4.704 10.312H11.88C12.504 10.312 13.072 10.472 13.584 10.792C14.096 11.096 14.504 11.504 14.808 12.016C15.128 12.528 15.288 13.096 15.288 13.72V15.616C15.288 16.224 15.128 16.784 14.808 17.296C14.504 17.808 14.096 18.224 13.584 18.544C13.072 18.848 12.504 19 11.88 19H4.536ZM17.1398 19V15.4L26.0678 8.488H17.1398V5.08H31.2518V8.68L22.3478 15.592H31.2518V19H17.1398ZM36.5773 19C35.9693 19 35.4013 18.848 34.8733 18.544C34.3613 18.224 33.9533 17.808 33.6493 17.296C33.3453 16.784 33.1933 16.224 33.1933 15.616V10.312H43.8973V8.632C43.8973 8.6 43.8813 8.568 43.8493 8.536C43.8173 8.504 43.7853 8.488 43.7533 8.488H33.1933V5.08H43.9213C44.5453 5.08 45.1133 5.24 45.6253 5.56C46.1373 5.864 46.5453 6.272 46.8493 6.784C47.1533 7.296 47.3053 7.856 47.3053 8.464V19H36.5773ZM36.7453 15.592H43.8973V13.36H36.6013V15.448C36.6013 15.48 36.6173 15.512 36.6493 15.544C36.6813 15.576 36.7133 15.592 36.7453 15.592ZM53.2894 19C52.6654 19 52.0974 18.848 51.5854 18.544C51.0734 18.224 50.6574 17.808 50.3374 17.296C50.0334 16.784 49.8814 16.224 49.8814 15.616V0.879999H53.2894V5.08H58.5934V8.488H53.2894V15.448C53.2894 15.48 53.3054 15.512 53.3374 15.544C53.3694 15.576 53.4014 15.592 53.4334 15.592H58.5934V19H53.2894ZM60.5929 19V0.519999H64.0009V10.312H66.1849L71.0089 5.08H74.5369V6.136L69.1849 12.04L74.5369 17.944V19H71.0089L66.1849 13.768H64.0009V19H60.5929ZM79.4205 19C78.8125 19 78.2525 18.848 77.7405 18.544C77.2285 18.224 76.8125 17.808 76.4925 17.296C76.1885 16.784 76.0365 16.224 76.0365 15.616V8.464C76.0365 7.856 76.1885 7.296 76.4925 6.784C76.8125 6.272 77.2285 5.864 77.7405 5.56C78.2525 5.24 78.8125 5.08 79.4205 5.08H86.7645C87.3885 5.08 87.9565 5.24 88.4685 5.56C88.9805 5.864 89.3885 6.272 89.6925 6.784C89.9965 7.296 90.1485 7.856 90.1485 8.464V15.616C90.1485 16.224 89.9965 16.784 89.6925 17.296C89.3885 17.808 88.9805 18.224 88.4685 18.544C87.9565 18.848 87.3885 19 86.7645 19H79.4205ZM79.5885 15.592H86.5965C86.6285 15.592 86.6605 15.576 86.6925 15.544C86.7245 15.512 86.7405 15.48 86.7405 15.448V8.632C86.7405 8.6 86.7245 8.568 86.6925 8.536C86.6605 8.504 86.6285 8.488 86.5965 8.488H79.5885C79.5565 8.488 79.5245 8.504 79.4925 8.536C79.4605 8.568 79.4445 8.6 79.4445 8.632V15.448C79.4445 15.48 79.4605 15.512 79.4925 15.544C79.5245 15.576 79.5565 15.592 79.5885 15.592ZM96.1714 19L90.6994 5.08H94.3234L97.5154 12.76L100.851 5.08H104.259L107.835 12.856L110.787 5.08H114.411L109.179 19H106.563L102.579 10.216L98.7874 19H96.1714ZM118.559 19C117.951 19 117.391 18.848 116.879 18.544C116.367 18.224 115.951 17.808 115.631 17.296C115.327 16.784 115.175 16.224 115.175 15.616V14.992H118.583V15.448C118.583 15.48 118.599 15.512 118.631 15.544C118.663 15.576 118.695 15.592 118.727 15.592H125.735C125.767 15.592 125.799 15.576 125.831 15.544C125.863 15.512 125.879 15.48 125.879 15.448V13.888C125.879 13.856 125.863 13.832 125.831 13.816C125.799 13.784 125.767 13.768 125.735 13.768H118.559C117.951 13.768 117.391 13.616 116.879 13.312C116.367 12.992 115.951 12.576 115.631 12.064C115.327 11.552 115.175 10.984 115.175 10.36V8.464C115.175 7.856 115.327 7.296 115.631 6.784C115.951 6.272 116.367 5.864 116.879 5.56C117.391 5.24 117.951 5.08 118.559 5.08H125.903C126.527 5.08 127.095 5.24 127.607 5.56C128.119 5.864 128.527 6.272 128.831 6.784C129.151 7.296 129.311 7.856 129.311 8.464V9.088H125.879V8.632C125.879 8.6 125.863 8.568 125.831 8.536C125.799 8.504 125.767 8.488 125.735 8.488H118.727C118.695 8.488 118.663 8.504 118.631 8.536C118.599 8.568 118.583 8.6 118.583 8.632V10.192C118.583 10.224 118.599 10.256 118.631 10.288C118.663 10.304 118.695 10.312 118.727 10.312H125.903C126.527 10.312 127.095 10.472 127.607 10.792C128.119 11.096 128.527 11.504 128.831 12.016C129.151 12.528 129.311 13.096 129.311 13.72V15.616C129.311 16.224 129.151 16.784 128.831 17.296C128.527 17.808 128.119 18.224 127.607 18.544C127.095 18.848 126.527 19 125.903 19H118.559ZM131.21 19V0.519999H134.618V10.312H136.802L141.626 5.08H145.154V6.136L139.802 12.04L145.154 17.944V19H141.626L136.802 13.768H134.618V19H131.21ZM146.889 19V5.08H150.297V19H146.889ZM146.889 3.952V0.519999H150.297V3.952H146.889ZM10.6345 39C10.2292 39 9.85583 38.8987 9.5145 38.696C9.17317 38.4827 8.89583 38.2053 8.6825 37.864C8.47983 37.5227 8.3785 37.1493 8.3785 36.744V31.976C8.3785 31.5707 8.47983 31.1973 8.6825 30.856C8.89583 30.5147 9.17317 30.2427 9.5145 30.04C9.85583 29.8267 10.2292 29.72 10.6345 29.72H17.7705V31.992H10.7465C10.7252 31.992 10.7038 32.0027 10.6825 32.024C10.6612 32.0453 10.6505 32.0667 10.6505 32.088V36.632C10.6505 36.6533 10.6612 36.6747 10.6825 36.696C10.7038 36.7173 10.7252 36.728 10.7465 36.728H17.7865V39H10.6345ZM21.6189 39C21.2135 39 20.8402 38.8987 20.4989 38.696C20.1575 38.4827 19.8802 38.2053 19.6669 37.864C19.4642 37.5227 19.3629 37.1493 19.3629 36.744V31.976C19.3629 31.5707 19.4642 31.1973 19.6669 30.856C19.8802 30.5147 20.1575 30.2427 20.4989 30.04C20.8402 29.8267 21.2135 29.72 21.6189 29.72H26.5149C26.9309 29.72 27.3095 29.8267 27.6509 30.04C27.9922 30.2427 28.2642 30.5147 28.4669 30.856C28.6695 31.1973 28.7709 31.5707 28.7709 31.976V36.744C28.7709 37.1493 28.6695 37.5227 28.4669 37.864C28.2642 38.2053 27.9922 38.4827 27.6509 38.696C27.3095 38.8987 26.9309 39 26.5149 39H21.6189ZM21.7309 36.728H26.4029C26.4242 36.728 26.4455 36.7173 26.4669 36.696C26.4882 36.6747 26.4989 36.6533 26.4989 36.632V32.088C26.4989 32.0667 26.4882 32.0453 26.4669 32.024C26.4455 32.0027 26.4242 31.992 26.4029 31.992H21.7309C21.7095 31.992 21.6882 32.0027 21.6669 32.024C21.6455 32.0453 21.6349 32.0667 21.6349 32.088V36.632C21.6349 36.6533 21.6455 36.6747 21.6669 36.696C21.6882 36.7173 21.7095 36.728 21.7309 36.728ZM32.265 39C31.8383 39 31.4543 38.8987 31.113 38.696C30.7717 38.4827 30.4997 38.2053 30.297 37.864C30.0943 37.5227 29.993 37.1493 29.993 36.744V31.976C29.993 31.5707 30.0943 31.1973 30.297 30.856C30.4997 30.5147 30.7717 30.2427 31.113 30.04C31.4543 29.8267 31.8383 29.72 32.265 29.72H37.145V26.68H39.417V39H32.265ZM32.377 36.728H37.049C37.0703 36.728 37.0917 36.7173 37.113 36.696C37.1343 36.6747 37.145 36.6533 37.145 36.632V32.088C37.145 32.0667 37.1343 32.0453 37.113 32.024C37.0917 32.0027 37.0703 31.992 37.049 31.992H32.377C32.3557 31.992 32.3343 32.0027 32.313 32.024C32.2917 32.0453 32.281 32.0667 32.281 32.088V36.632C32.281 36.6533 32.2917 36.6747 32.313 36.696C32.3343 36.7173 32.3557 36.728 32.377 36.728ZM43.0095 39C42.6042 39 42.2308 38.8987 41.8895 38.696C41.5482 38.4827 41.2708 38.2053 41.0575 37.864C40.8548 37.5227 40.7535 37.1493 40.7535 36.744V31.976C40.7535 31.5707 40.8548 31.1973 41.0575 30.856C41.2708 30.5147 41.5482 30.2427 41.8895 30.04C42.2308 29.8267 42.6042 29.72 43.0095 29.72H47.9055C48.3215 29.72 48.7002 29.8267 49.0415 30.04C49.3828 30.2427 49.6548 30.5147 49.8575 30.856C50.0602 31.1973 50.1615 31.5707 50.1615 31.976V35.512H43.0255V36.632C43.0255 36.6533 43.0362 36.6747 43.0575 36.696C43.0788 36.7173 43.1002 36.728 43.1215 36.728H50.1615V39H43.0095ZM43.0255 33.48H47.8895V32.088C47.8895 32.0667 47.8788 32.0453 47.8575 32.024C47.8362 32.0027 47.8148 31.992 47.7935 31.992H43.1215C43.1002 31.992 43.0788 32.0027 43.0575 32.024C43.0362 32.0453 43.0255 32.0667 43.0255 32.088V33.48Z" fill="white"/>
<path d="M6.848 39.192L0.08 35.256V33.288L6.848 29.368V31.992L2.912 34.264L6.848 36.552V39.192ZM65.3503 39.224V36.568L69.2863 34.296L65.3503 32.024V29.4L72.1343 33.304V35.288L65.3503 39.224Z" fill="#06D8B3"/>
<path d="M56.1585 39V36.632L63.6305 27.496L64.3985 27.48V29.832L56.9265 38.984L56.1585 39Z" fill="#FD08BD"/>
</svg>
