<svg width="32" height="32" viewBox="0 0 32 32" fill="none" xmlns="http://www.w3.org/2000/svg">
<path d="M16.0002 31.75C15.5814 31.75 15.1564 31.6375 14.7877 31.425L10.9314 29.1438C10.3564 28.8188 10.6377 28.7063 10.8252 28.6438C11.5939 28.375 11.7502 28.3188 12.5689 27.85C12.6564 27.8 12.7689 27.8188 12.8564 27.875L15.8189 29.6313C15.9252 29.6938 16.0752 29.6938 16.1752 29.6313L27.7189 22.9688C27.8252 22.9063 27.8939 22.7813 27.8939 22.6563V9.3313C27.8939 9.20005 27.8252 9.0813 27.7127 9.01255L16.1752 2.3563C16.0689 2.2938 15.9252 2.2938 15.8189 2.3563L4.2877 9.0188C4.1752 9.0813 4.10645 9.2063 4.10645 9.33755V22.6563C4.10645 22.7813 4.1752 22.9063 4.2877 22.9625L7.4502 24.7875C9.16895 25.6438 10.2189 24.6375 10.2189 23.6188V10.4688C10.2189 10.2813 10.3689 10.1375 10.5564 10.1375H12.0189C12.2002 10.1375 12.3564 10.2813 12.3564 10.4688V23.625C12.3564 25.9125 11.1064 27.225 8.9377 27.225C8.26895 27.225 7.74395 27.225 6.28145 26.5L3.25645 24.7563C2.50645 24.325 2.04395 23.5188 2.04395 22.65V9.3313C2.04395 8.4688 2.50645 7.6563 3.25645 7.22505L14.7877 0.562549C15.5189 0.150049 16.4877 0.150049 17.2127 0.562549L28.7564 7.2313C29.5064 7.66255 29.9689 8.4688 29.9689 9.33755V22.6563C29.9689 23.5188 29.5064 24.3251 28.7564 24.7626L17.2127 31.425C16.8439 31.6375 16.4252 31.75 16.0002 31.75ZM25.3189 18.6188C25.3189 16.125 23.6314 15.4625 20.0877 14.9938C16.5002 14.5188 16.1377 14.275 16.1377 13.4375C16.1377 12.7438 16.4439 11.8188 19.1002 11.8188C21.4689 11.8188 22.3439 12.3313 22.7064 13.9313C22.7377 14.0813 22.8752 14.1938 23.0314 14.1938H24.5314C24.6252 14.1938 24.7127 14.1563 24.7752 14.0875C24.8377 14.0188 24.8689 13.925 24.8627 13.8313C24.6314 11.075 22.8002 9.7938 19.1002 9.7938C15.8064 9.7938 13.8439 11.1813 13.8439 13.5125C13.8439 16.0375 15.8002 16.7375 18.9564 17.05C22.7377 17.4188 23.0314 17.975 23.0314 18.7188C23.0314 20.0063 21.9939 20.5563 19.5627 20.5563C16.5064 20.5563 15.8377 19.7875 15.6127 18.2688C15.5877 18.1063 15.4502 17.9875 15.2814 17.9875H13.7877C13.6002 17.9875 13.4564 18.1375 13.4564 18.3188C13.4564 20.2625 14.5127 22.5813 19.5689 22.5813C23.2189 22.575 25.3189 21.1313 25.3189 18.6188Z" fill="white"/>
</svg>
